<svg xmlns="http://www.w3.org/2000/svg" viewBox="0 0 1600 700" width="1600" height="700">
<rect width="1600" height="700" fill="#fff"/>

<rect x="560" y="160" width="400" height="440" fill="#fff" stroke="#000" stroke-width="7"/>
<path d="M548 160H972" stroke="#000" stroke-width="12"/>
<circle cx="760" cy="270" r="62" fill="#fff" stroke="#000" stroke-width="8"/><circle cx="760" cy="270" r="16" fill="#000"/>
<g stroke="#000" stroke-width="4"><path d="M760 270L812 270"/><path d="M760 270L805 296"/><path d="M760 270L786 315"/><path d="M760 270L760 322"/><path d="M760 270L734 315"/><path d="M760 270L715 296"/><path d="M760 270L708 270"/><path d="M760 270L715 244"/><path d="M760 270L734 225"/><path d="M760 270L760 218"/><path d="M760 270L786 225"/><path d="M760 270L805 244"/></g>
<path d="M670 600V470Q670 371 760 326Q850 371 850 470V600" fill="none" stroke="#000" stroke-width="6"/><path d="M680 600V470Q680 382 760 342Q840 382 840 470V600" fill="none" stroke="#000" stroke-width="3"/><path d="M690 600V470Q690 393 760 358Q830 393 830 470V600" fill="none" stroke="#000" stroke-width="6"/><path d="M700 600V470Q700 404 760 374Q820 404 820 470V600" fill="none" stroke="#000" stroke-width="3"/>
<path d="M710 600V490Q710 450 760 420Q810 450 810 490V600Z" fill="#000"/>
<rect x="985" y="40" width="140" height="560" fill="#fff" stroke="#000" stroke-width="7"/>
<path d="M972 40H1138M972 130H1138" stroke="#000" stroke-width="10"/>
<path d="M1010 120V75Q1010 56 1027 50Q1044 56 1044 75V120ZM1066 120V75Q1066 56 1083 50Q1100 56 1100 75V120Z" fill="#000"/>
<circle cx="1055" cy="205" r="34" fill="#fff" stroke="#000" stroke-width="5"/><path d="M1055 205V183M1055 205L1072 214" stroke="#000" stroke-width="4"/>
<g fill="#000"><rect x="1043" y="300" width="24" height="60"/><rect x="1043" y="420" width="24" height="60"/></g>
<rect x="60" y="200" width="480" height="400" fill="#fff" stroke="#000" stroke-width="5"/><path d="M48 200H552" stroke="#000" stroke-width="10"/><path d="M77 600V493A43 43 0 0 1 163 493V600Z" fill="#000"/><path d="M197 600V493A43 43 0 0 1 283 493V600Z" fill="#000"/><path d="M317 600V493A43 43 0 0 1 403 493V600Z" fill="#000"/><path d="M437 600V493A43 43 0 0 1 523 493V600Z" fill="#000"/><rect x="100" y="260" width="40" height="70" fill="#000"/><path d="M86 330H154M86 306H154" stroke="#000" stroke-width="4"/><path d="M86 306V330" stroke="#000" stroke-width="2"/><path d="M97 306V330" stroke="#000" stroke-width="2"/><path d="M109 306V330" stroke="#000" stroke-width="2"/><path d="M120 306V330" stroke="#000" stroke-width="2"/><path d="M131 306V330" stroke="#000" stroke-width="2"/><path d="M142 306V330" stroke="#000" stroke-width="2"/><path d="M154 306V330" stroke="#000" stroke-width="2"/><rect x="220" y="260" width="40" height="70" fill="#000"/><path d="M206 330H274M206 306H274" stroke="#000" stroke-width="4"/><path d="M206 306V330" stroke="#000" stroke-width="2"/><path d="M217 306V330" stroke="#000" stroke-width="2"/><path d="M229 306V330" stroke="#000" stroke-width="2"/><path d="M240 306V330" stroke="#000" stroke-width="2"/><path d="M251 306V330" stroke="#000" stroke-width="2"/><path d="M262 306V330" stroke="#000" stroke-width="2"/><path d="M274 306V330" stroke="#000" stroke-width="2"/><rect x="340" y="260" width="40" height="70" fill="#000"/><path d="M326 330H394M326 306H394" stroke="#000" stroke-width="4"/><path d="M326 306V330" stroke="#000" stroke-width="2"/><path d="M337 306V330" stroke="#000" stroke-width="2"/><path d="M349 306V330" stroke="#000" stroke-width="2"/><path d="M360 306V330" stroke="#000" stroke-width="2"/><path d="M371 306V330" stroke="#000" stroke-width="2"/><path d="M382 306V330" stroke="#000" stroke-width="2"/><path d="M394 306V330" stroke="#000" stroke-width="2"/><rect x="460" y="260" width="40" height="70" fill="#000"/><path d="M446 330H514M446 306H514" stroke="#000" stroke-width="4"/><path d="M446 306V330" stroke="#000" stroke-width="2"/><path d="M457 306V330" stroke="#000" stroke-width="2"/><path d="M469 306V330" stroke="#000" stroke-width="2"/><path d="M480 306V330" stroke="#000" stroke-width="2"/><path d="M491 306V330" stroke="#000" stroke-width="2"/><path d="M502 306V330" stroke="#000" stroke-width="2"/><path d="M514 306V330" stroke="#000" stroke-width="2"/><rect x="100" y="360" width="40" height="56" fill="#000"/><path d="M86 416H154M86 392H154" stroke="#000" stroke-width="4"/><path d="M86 392V416" stroke="#000" stroke-width="2"/><path d="M97 392V416" stroke="#000" stroke-width="2"/><path d="M109 392V416" stroke="#000" stroke-width="2"/><path d="M120 392V416" stroke="#000" stroke-width="2"/><path d="M131 392V416" stroke="#000" stroke-width="2"/><path d="M142 392V416" stroke="#000" stroke-width="2"/><path d="M154 392V416" stroke="#000" stroke-width="2"/><rect x="220" y="360" width="40" height="56" fill="#000"/><path d="M206 416H274M206 392H274" stroke="#000" stroke-width="4"/><path d="M206 392V416" stroke="#000" stroke-width="2"/><path d="M217 392V416" stroke="#000" stroke-width="2"/><path d="M229 392V416" stroke="#000" stroke-width="2"/><path d="M240 392V416" stroke="#000" stroke-width="2"/><path d="M251 392V416" stroke="#000" stroke-width="2"/><path d="M262 392V416" stroke="#000" stroke-width="2"/><path d="M274 392V416" stroke="#000" stroke-width="2"/><rect x="340" y="360" width="40" height="56" fill="#000"/><path d="M326 416H394M326 392H394" stroke="#000" stroke-width="4"/><path d="M326 392V416" stroke="#000" stroke-width="2"/><path d="M337 392V416" stroke="#000" stroke-width="2"/><path d="M349 392V416" stroke="#000" stroke-width="2"/><path d="M360 392V416" stroke="#000" stroke-width="2"/><path d="M371 392V416" stroke="#000" stroke-width="2"/><path d="M382 392V416" stroke="#000" stroke-width="2"/><path d="M394 392V416" stroke="#000" stroke-width="2"/><rect x="460" y="360" width="40" height="56" fill="#000"/><path d="M446 416H514M446 392H514" stroke="#000" stroke-width="4"/><path d="M446 392V416" stroke="#000" stroke-width="2"/><path d="M457 392V416" stroke="#000" stroke-width="2"/><path d="M469 392V416" stroke="#000" stroke-width="2"/><path d="M480 392V416" stroke="#000" stroke-width="2"/><path d="M491 392V416" stroke="#000" stroke-width="2"/><path d="M502 392V416" stroke="#000" stroke-width="2"/><path d="M514 392V416" stroke="#000" stroke-width="2"/>
<rect x="1145" y="180" width="415" height="420" fill="#fff" stroke="#000" stroke-width="5"/><path d="M1133 180H1572" stroke="#000" stroke-width="10"/><path d="M1164 600V500A50 50 0 0 1 1264 500V600Z" fill="#000"/><path d="M1303 600V500A50 50 0 0 1 1402 500V600Z" fill="#000"/><path d="M1441 600V500A50 50 0 0 1 1541 500V600Z" fill="#000"/><rect x="1194" y="240" width="40" height="70" fill="#000"/><path d="M1180 310H1248M1180 286H1248" stroke="#000" stroke-width="4"/><path d="M1180 286V310" stroke="#000" stroke-width="2"/><path d="M1191 286V310" stroke="#000" stroke-width="2"/><path d="M1203 286V310" stroke="#000" stroke-width="2"/><path d="M1214 286V310" stroke="#000" stroke-width="2"/><path d="M1225 286V310" stroke="#000" stroke-width="2"/><path d="M1237 286V310" stroke="#000" stroke-width="2"/><path d="M1248 286V310" stroke="#000" stroke-width="2"/><rect x="1332" y="240" width="40" height="70" fill="#000"/><path d="M1318 310H1386M1318 286H1386" stroke="#000" stroke-width="4"/><path d="M1318 286V310" stroke="#000" stroke-width="2"/><path d="M1330 286V310" stroke="#000" stroke-width="2"/><path d="M1341 286V310" stroke="#000" stroke-width="2"/><path d="M1352 286V310" stroke="#000" stroke-width="2"/><path d="M1364 286V310" stroke="#000" stroke-width="2"/><path d="M1375 286V310" stroke="#000" stroke-width="2"/><path d="M1386 286V310" stroke="#000" stroke-width="2"/><rect x="1471" y="240" width="40" height="70" fill="#000"/><path d="M1457 310H1525M1457 286H1525" stroke="#000" stroke-width="4"/><path d="M1457 286V310" stroke="#000" stroke-width="2"/><path d="M1468 286V310" stroke="#000" stroke-width="2"/><path d="M1479 286V310" stroke="#000" stroke-width="2"/><path d="M1491 286V310" stroke="#000" stroke-width="2"/><path d="M1502 286V310" stroke="#000" stroke-width="2"/><path d="M1513 286V310" stroke="#000" stroke-width="2"/><path d="M1525 286V310" stroke="#000" stroke-width="2"/><rect x="1194" y="350" width="40" height="56" fill="#000"/><path d="M1180 406H1248M1180 382H1248" stroke="#000" stroke-width="4"/><path d="M1180 382V406" stroke="#000" stroke-width="2"/><path d="M1191 382V406" stroke="#000" stroke-width="2"/><path d="M1203 382V406" stroke="#000" stroke-width="2"/><path d="M1214 382V406" stroke="#000" stroke-width="2"/><path d="M1225 382V406" stroke="#000" stroke-width="2"/><path d="M1237 382V406" stroke="#000" stroke-width="2"/><path d="M1248 382V406" stroke="#000" stroke-width="2"/><rect x="1332" y="350" width="40" height="56" fill="#000"/><path d="M1318 406H1386M1318 382H1386" stroke="#000" stroke-width="4"/><path d="M1318 382V406" stroke="#000" stroke-width="2"/><path d="M1330 382V406" stroke="#000" stroke-width="2"/><path d="M1341 382V406" stroke="#000" stroke-width="2"/><path d="M1352 382V406" stroke="#000" stroke-width="2"/><path d="M1364 382V406" stroke="#000" stroke-width="2"/><path d="M1375 382V406" stroke="#000" stroke-width="2"/><path d="M1386 382V406" stroke="#000" stroke-width="2"/><rect x="1471" y="350" width="40" height="56" fill="#000"/><path d="M1457 406H1525M1457 382H1525" stroke="#000" stroke-width="4"/><path d="M1457 382V406" stroke="#000" stroke-width="2"/><path d="M1468 382V406" stroke="#000" stroke-width="2"/><path d="M1479 382V406" stroke="#000" stroke-width="2"/><path d="M1491 382V406" stroke="#000" stroke-width="2"/><path d="M1502 382V406" stroke="#000" stroke-width="2"/><path d="M1513 382V406" stroke="#000" stroke-width="2"/><path d="M1525 382V406" stroke="#000" stroke-width="2"/>
<rect x="130" y="500" width="250" height="100" fill="#fff"/>
<g transform="translate(150 551) scale(0.7)" fill="none" stroke="#000" stroke-linecap="round" stroke-linejoin="round"><circle cx="0" cy="0" r="70" fill="#fff" stroke-width="7"/><circle cx="0" cy="0" r="59" stroke-width="2"/><g stroke-width="1.5"><path d="M0 0m0 58l0 -116"/><path d="M0 0m58 0l-116 0"/><path d="M0 0m41 41l-82 -82"/><path d="M0 0m41 -41l-82 82"/></g><circle cx="230" cy="0" r="70" fill="#fff" stroke-width="7"/><circle cx="230" cy="0" r="59" stroke-width="2"/><g stroke-width="1.5"><path d="M230 0m0 58l0 -116"/><path d="M230 0m58 0l-116 0"/><path d="M230 0m41 41l-82 -82"/><path d="M230 0m41 -41l-82 82"/></g><path d="M0 0L95 10L70 -95L200 -100L205 -75L95 10M0 0L70 -95M205 -75L230 0" stroke-width="6"/><path d="M70 -95L65 -112" stroke-width="6"/><path d="M48 -114H88" stroke-width="8"/><path d="M200 -100L218 -108h12q16 0 16 18q0 16 -14 16" stroke-width="6"/><circle cx="95" cy="10" r="14" stroke-width="4"/></g>
<path d="M0 600H1600" stroke="#000" stroke-width="5"/>
<rect y="624" width="1600" height="76" fill="#fff"/>
<path d="M24 64V24H64M1536 24H1576V64" fill="none" stroke="#000" stroke-width="3"/>
</svg>
